# xmcd
#
# Track frame offsets: 
#        150
#        18073
#        27979
#        40581
#        53620
#        67131
#        78250
#        91961
#        102465
#        114414
#
# Disc length: 1736 seconds
#
# Revision: 0
# Processed by: cddbd v1.5PL3 Copyright (c) Steve Scherf et al.
# Submitted via: ExactAudioCopy v0.95a4
#
DISCID=7106c60a
DTITLE=Hayseed Dixie - A Hilibilly Tribute To AC DC
DYEAR=1900
DGENRE=Country
TTITLE0=Back In Black
TTITLE1=Big Balls
TTITLE2=Dirty Deeds Done Dirt Cheap
TTITLE3=Have A Drink On Me
TTITLE4=Hell´s Bells
TTITLE5=Highway To Hell
TTITLE6=Let´s Get It Up
TTITLE7=Money Talks
TTITLE8=T.N.T.
TTITLE9=You Shook Me All Night Long
EXTD=
EXTT0=
EXTT1=
EXTT2=
EXTT3=
EXTT4=
EXTT5=
EXTT6=
EXTT7=
EXTT8=
EXTT9=
PLAYORDER=
